# xmcd
#
# Track frame offsets: 
#        150
#        15823
#        30661
#        46997
#        64440
#        80768
#        101079
#        119596
#        135417
#        154858
#        169786
#        188660
#        206912
#        224027
#        238778
#
# Disc length: 3367 seconds
#
# Revision: 6
# Processed by: cddbd v1.5.2PL0 Copyright (c) Steve Scherf et al.
# Submitted via: ExactAudioCopy v0.99pb5
#
DISCID=d80d250f
DTITLE=Various Artist - Classic Country - TL 626-40 - 1997 - 2000 - CD 2
DYEAR=2004
DGENRE=Country
TTITLE0=Collin Raye - Little red rodeo
TTITLE1=Jo Dee Messina - I'm alright
TTITLE2=Tracy Lawrence - Better man better off
TTITLE3=Kenny Chesney - You had me from hello
TTITLE4=Kinleys - Please
TTITLE5=Steve Wariner - Two teardrops
TTITLE6=Phil Vassar - Carlene
TTITLE7=John Michael Montgomery - Home to you
TTITLE8=Travis Tritt - Best of intentions
TTITLE9=Pam Tillis - All the good ones are gone
TTITLE10=Keith Urban - Your everything
TTITLE11=Trace Adkins - (This ain't) no thinkin' thing
TTITLE12=Brad Paisley - We danced
TTITLE13=Bryan White - Love is the right place
TTITLE14=Michael Peterson - Drink, swear, steal and lie
EXTD=
EXTT0=
EXTT1=
EXTT2=
EXTT3=
EXTT4=
EXTT5=
EXTT6=
EXTT7=
EXTT8=
EXTT9=
EXTT10=
EXTT11=
EXTT12=
EXTT13=
EXTT14=
PLAYORDER=
